<svg xmlns="http://www.w3.org/2000/svg" xmlns:xlink="http://www.w3.org/1999/xlink" width="60" height="60" viewBox="0 0 60 60">
  <defs>
    <clipPath id="clip-path">
      <rect id="Rectangle_1" data-name="Rectangle 1" width="60" height="60" transform="translate(867 744)" fill="#fff"/>
    </clipPath>
    <linearGradient id="linear-gradient" x1="0.888" y1="0.143" x2="0.801" y2="1" gradientUnits="objectBoundingBox">
      <stop offset="0" stop-color="#6362d7"/>
      <stop offset="1" stop-color="#a67bff"/>
    </linearGradient>
  </defs>
  <g id="Mask_Group_3" data-name="Mask Group 3" transform="translate(-867 -744)" clip-path="url(#clip-path)">
    <g id="Group_177" data-name="Group 177" transform="translate(540.267 -1337.111)">
      <g id="analytics" transform="translate(326.732 2081.112)">
        <g id="Group_30" data-name="Group 30" transform="translate(8.906)">
          <g id="Group_29" data-name="Group 29">
            <path id="Path_512" data-name="Path 512" d="M120.9,0q-.359,0-.71.035A1.172,1.172,0,0,0,119.907,0H84.575a7.5,7.5,0,0,0-7.5,7.5v4.687a1.172,1.172,0,1,0,2.344,0V7.5a5.162,5.162,0,0,1,5.16-5.161h30.988a7.237,7.237,0,0,0-1.927,4.921.757.757,0,0,0,.006.118.776.776,0,0,1-.006.118v8.011a1.172,1.172,0,1,0,2.344,0V8.437h11.015a1.172,1.172,0,0,0,1.172-1.171A7.273,7.273,0,0,0,120.9,0Zm-4.781,6.094a4.92,4.92,0,0,1,9.559,0Z" transform="translate(-77.071)" fill="url(#linear-gradient)"/>
          </g>
        </g>
        <g id="Group_32" data-name="Group 32" transform="translate(3.31 6.326)">
          <g id="Group_31" data-name="Group 31">
            <path id="Path_513" data-name="Path 513" d="M64.927,54.751H57.482a1.172,1.172,0,1,0,0,2.344h4.766L48.955,70.386l-7.791-7.791a1.172,1.172,0,0,0-1.657,0L28.991,73.116a1.172,1.172,0,0,0,1.657,1.657l9.689-9.689,7.791,7.791a1.172,1.172,0,0,0,1.657,0L63.755,58.9v4.468a1.172,1.172,0,0,0,2.344,0V55.922A1.172,1.172,0,0,0,64.927,54.751Z" transform="translate(-28.647 -54.751)" fill="url(#linear-gradient)"/>
          </g>
        </g>
        <g id="Group_34" data-name="Group 34" transform="translate(0 27.653)">
          <g id="Group_33" data-name="Group 33">
            <path id="Path_514" data-name="Path 514" d="M2,239.67a1.171,1.171,0,1,0,.254,1.277A1.171,1.171,0,0,0,2,239.67Z" transform="translate(0 -239.326)" fill="url(#linear-gradient)"/>
          </g>
        </g>
        <g id="Group_36" data-name="Group 36" transform="translate(2.578 25.08)">
          <g id="Group_35" data-name="Group 35">
            <path id="Path_515" data-name="Path 515" d="M73.166,228.762a1.171,1.171,0,0,0-1.171-1.171H63.089v-8.906a1.172,1.172,0,0,0-1.171-1.172,11.249,11.249,0,1,0,3.28,22.006v5.172a4.921,4.921,0,0,1-9.843,0,.756.756,0,0,0-.005-.107,1.19,1.19,0,0,0,.007-.127,1.171,1.171,0,0,0-1.171-1.171h-23.2V218.217a1.172,1.172,0,0,0-2.344,0V243.29H23.481a1.172,1.172,0,0,0-1.171,1.171,7.5,7.5,0,0,0,7.5,7.5H60.276a7.273,7.273,0,0,0,7.263-7.265v-6.192A11.256,11.256,0,0,0,73.166,228.762ZM29.814,249.617a5.165,5.165,0,0,1-5.022-3.984h28.28a7.242,7.242,0,0,0,1.864,3.984Zm32.108-11.95a8.906,8.906,0,0,1-1.178-17.733v8.829a1.172,1.172,0,0,0,1.171,1.172h8.829a8.924,8.924,0,0,1-8.827,7.732Z" transform="translate(-22.31 -217.045)" fill="url(#linear-gradient)"/>
          </g>
        </g>
        <g id="Group_38" data-name="Group 38" transform="translate(44.996 18.986)">
          <g id="Group_37" data-name="Group 37">
            <path id="Path_516" data-name="Path 516" d="M390.583,164.312a1.172,1.172,0,0,0-1.171,1.172V178.14a1.172,1.172,0,0,0,1.171,1.172h12.655a1.172,1.172,0,0,0,1.172-1.172A13.842,13.842,0,0,0,390.583,164.312Zm1.172,12.655v-10.25a11.5,11.5,0,0,1,10.252,10.252Z" transform="translate(-389.412 -164.312)" fill="url(#linear-gradient)"/>
          </g>
        </g>
        <g id="Group_40" data-name="Group 40" transform="translate(13.475 37.966)">
          <g id="Group_39" data-name="Group 39">
            <path id="Path_517" data-name="Path 517" d="M127.87,328.566H117.793a1.172,1.172,0,0,0,0,2.344H127.87a1.172,1.172,0,1,0,0-2.344Z" transform="translate(-116.621 -328.566)" fill="url(#linear-gradient)"/>
          </g>
        </g>
        <g id="Group_42" data-name="Group 42" transform="translate(28.181 43.59)">
          <g id="Group_41" data-name="Group 41">
            <path id="Path_518" data-name="Path 518" d="M245.889,377.586a1.171,1.171,0,1,0,.344.828,1.171,1.171,0,0,0-.344-.828Z" transform="translate(-243.889 -377.242)" fill="url(#linear-gradient)"/>
          </g>
        </g>
        <g id="Group_44" data-name="Group 44" transform="translate(13.475 43.59)">
          <g id="Group_43" data-name="Group 43">
            <path id="Path_519" data-name="Path 519" d="M127.87,377.242H117.793a1.172,1.172,0,1,0,0,2.344H127.87a1.172,1.172,0,0,0,0-2.344Z" transform="translate(-116.621 -377.242)" fill="url(#linear-gradient)"/>
          </g>
        </g>
        <g id="Group_46" data-name="Group 46" transform="translate(13.475 32.34)">
          <g id="Group_45" data-name="Group 45">
            <path id="Path_520" data-name="Path 520" d="M121.826,279.89h-4.033a1.172,1.172,0,1,0,0,2.344h4.033a1.172,1.172,0,0,0,0-2.344Z" transform="translate(-116.621 -279.89)" fill="url(#linear-gradient)"/>
          </g>
        </g>
      </g>
    </g>
  </g>
</svg>
