<svg xmlns="http://www.w3.org/2000/svg" xmlns:xlink="http://www.w3.org/1999/xlink" id="Capa_1" x="0px" y="0px" viewBox="0 0 512 512" style="enable-background:new 0 0 512 512;" xml:space="preserve">
<style type="text/css">
	.st0{fill:#42C4E3;}
</style>
<g>
	<g>
		<path class="st0" d="M335.6,212.4H34.3C15.4,212.4,0,227.8,0,246.7v208.6c0,18.9,15.4,34.3,34.3,34.3h301.3    c18.9,0,34.3-15.4,34.3-34.3V246.7C369.9,227.8,354.5,212.4,335.6,212.4z M328.8,448.5H41.2V253.6h287.6V448.5z"></path>
	</g>
</g>
<g>
	<g>
		<path class="st0" d="M502.7,236.4c-5.8-3.8-13.2-4.4-19.6-1.6l-143.4,63.1l16.6,37.7l114.5-50.4v132.8l-114.7-49.4l-16.3,37.8    l143.4,61.8c2.6,1.1,5.4,1.7,8.1,1.7c4,0,7.9-1.1,11.3-3.4c5.8-3.8,9.3-10.3,9.3-17.2V253.6C512,246.6,508.5,240.2,502.7,236.4z"></path>
	</g>
</g>
<g>
	<g>
		<path class="st0" d="M84.4,22.3C38.2,22.3,0.7,59.9,0.7,106s37.6,83.7,83.7,83.7s83.7-37.6,83.7-83.7    C168.2,59.9,130.6,22.3,84.4,22.3z M84.4,148.6c-23.5,0-42.6-19.1-42.6-42.6c0-23.5,19.1-42.6,42.6-42.6    c23.5,0,42.6,19.1,42.6,42.6S107.9,148.6,84.4,148.6z"></path>
	</g>
</g>
<g>
	<g>
		<path class="st0" d="M275.2,22.3c-46.2,0-83.7,37.6-83.7,83.7s37.6,83.7,83.7,83.7s83.7-37.6,83.7-83.7    C358.9,59.9,321.4,22.3,275.2,22.3z M275.2,148.6c-23.5,0-42.6-19.1-42.6-42.6c0-23.5,19.1-42.6,42.6-42.6    c23.5,0,42.6,19.1,42.6,42.6S298.7,148.6,275.2,148.6z"></path>
	</g>
</g>
</svg>