<svg xmlns="http://www.w3.org/2000/svg" xmlns:xlink="http://www.w3.org/1999/xlink" id="Capa_1" x="0px" y="0px" viewBox="0 0 512 512" style="enable-background:new 0 0 512 512;" xml:space="preserve">
<style type="text/css">
	.st0{fill:#42C4E3;}
</style>
<path class="st0" d="M497.5,126.4c-1,0-20.7-0.7-49.8-0.1V66.8c0-8.8-7.5-15.7-16.3-15c-57.9,4.8-131.5,30.4-175.4,77.1  C212.1,82.2,138.5,56.6,80.6,51.8c-8.8-0.7-16.3,6.2-16.3,15v61.1c-16.5-0.6-32.1-1.1-48.8-1.6C7.1,126.1,0,132.9,0,141.4v274.2  c0,7.9,6.1,14.5,14,15c59.9,4,160.2,4.5,236,36.8c6.8,2.9,12.8-0.4,11.8,0c75.8-32.3,176.1-32.8,236-36.8c7.9-0.5,14-7.1,14-15  V141.4C512,133.3,505.6,126.7,497.5,126.4L497.5,126.4z M417.6,83.8v258.1c-43.4,9.7-98.5,30.4-146.5,74.4c0-13.3,0-251.7,0-258.8  C304,116.3,366.4,91.5,417.6,83.8L417.6,83.8z M94.4,83.8c51.2,7.8,113.6,32.5,146.5,73.6v258.8c-48.1-44-103.1-64.7-146.5-74.4  V83.8z M30.1,401.5V157c10.8,0.3,22.3,0.7,34.2,1.1v196c0,7.2,5.2,13.5,12.3,14.8c34.4,6.5,79.1,20.5,120.8,50.6  C137.9,406.2,75.7,404.1,30.1,401.5L30.1,401.5z M481.9,401.5c-45.5,2.6-107.8,4.7-167.2,18c41.7-30.2,86.4-44.2,120.8-50.6  c7.1-1.3,12.3-7.6,12.3-14.8V156.5c13.9-0.3,25.7-0.3,34.2-0.2L481.9,401.5L481.9,401.5z"></path>
<path class="st0" d="M201.9,192.1c-11.7-8.1-31.8-18.1-53.2-21.7c-8.2-1.4-16,4.1-17.4,12.3c-1.4,8.2,4.1,16,12.3,17.4  c16.6,2.8,32.5,10.8,41,16.7c6.8,4.8,16.2,3.1,21-3.7C210.4,206.2,208.7,196.8,201.9,192.1L201.9,192.1z"></path>
<path class="st0" d="M200.4,276.9c-10.7-6.6-31.7-18.1-51.7-21.4c-8.2-1.4-16,4.1-17.4,12.3c-1.4,8.2,4.1,16,12.3,17.4  c15.6,2.6,33.9,13.1,41,17.4c7.1,4.3,16.4,2.1,20.7-5C209.7,290.5,207.5,281.2,200.4,276.9L200.4,276.9z"></path>
<path class="st0" d="M327.3,216.8c8.6-6,24.5-13.9,41-16.7c8.2-1.4,13.7-9.2,12.3-17.4c-1.4-8.2-9.2-13.7-17.4-12.3  c-21.5,3.6-41.6,13.6-53.2,21.7c-6.8,4.8-8.5,14.1-3.7,21C311.1,219.9,320.5,221.6,327.3,216.8L327.3,216.8z"></path>
<path class="st0" d="M363.3,255.5c-20,3.4-41,14.9-51.7,21.4c-7.1,4.3-9.3,13.6-5,20.7c4.3,7.1,13.6,9.3,20.7,5  c7.1-4.4,25.5-14.8,41-17.4c8.2-1.4,13.7-9.2,12.3-17.4C379.3,259.6,371.5,254.1,363.3,255.5z"></path>
</svg>