<svg xmlns="http://www.w3.org/2000/svg" xmlns:xlink="http://www.w3.org/1999/xlink" width="60" height="60" viewBox="0 0 60 60">
  <defs>
    <clipPath id="clip-path">
      <rect id="Rectangle_1" data-name="Rectangle 1" width="60" height="60" transform="translate(867 744)" fill="#fff"/>
    </clipPath>
    <linearGradient id="linear-gradient" x1="0.5" x2="0.5" y2="1" gradientUnits="objectBoundingBox">
      <stop offset="0" stop-color="#6362d7"/>
      <stop offset="1" stop-color="#a67bff"/>
    </linearGradient>
  </defs>
  <g id="Mask_Group_4" data-name="Mask Group 4" transform="translate(-867 -744)" clip-path="url(#clip-path)">
    <g id="data-protection" transform="translate(867 747.085)">
      <path id="Path_501" data-name="Path 501" d="M307.02,75.65h10.8a1.172,1.172,0,0,0,0-2.344h-10.8a1.172,1.172,0,1,0,0,2.344Z" transform="translate(-267.85 -67.274)" fill="url(#linear-gradient)"/>
      <path id="Path_502" data-name="Path 502" d="M265.591,75.65a1.172,1.172,0,1,0,0-2.344h-.007a1.172,1.172,0,0,0,.007,2.344Z" transform="translate(-231.565 -67.274)" fill="url(#linear-gradient)"/>
      <path id="Path_503" data-name="Path 503" d="M224.507,75.65a1.172,1.172,0,0,0,0-2.344H224.5a1.172,1.172,0,1,0,.007,2.344Z" transform="translate(-195.585 -67.274)" fill="url(#linear-gradient)"/>
      <path id="Path_504" data-name="Path 504" d="M124.547,439.173h0a1.171,1.171,0,1,0,.831.341,1.172,1.172,0,0,0-.831-.341Z" transform="translate(-108.046 -387.688)" fill="url(#linear-gradient)"/>
      <path id="Path_505" data-name="Path 505" d="M317.815,171.382h-10.8a1.172,1.172,0,1,0,0,2.344h10.8a1.172,1.172,0,1,0,0-2.344Z" transform="translate(-267.849 -153.166)" fill="url(#linear-gradient)"/>
      <path id="Path_506" data-name="Path 506" d="M265.591,171.382h-.007a1.179,1.179,0,1,0,.007,0Z" transform="translate(-231.565 -153.166)" fill="url(#linear-gradient)"/>
      <path id="Path_507" data-name="Path 507" d="M224.507,171.382H224.5a1.179,1.179,0,1,0,.007,0Z" transform="translate(-195.585 -153.166)" fill="url(#linear-gradient)"/>
      <path id="Path_508" data-name="Path 508" d="M58.326,59.516a5.857,5.857,0,0,0,.257-1.711V54.989a5.847,5.847,0,0,0-2.345-4.684,5.854,5.854,0,0,0,2.345-4.685V42.8a5.854,5.854,0,0,0-2.345-4.686,5.846,5.846,0,0,0,2.345-4.683V30.621a5.863,5.863,0,0,0-5.855-5.859H26.156A5.864,5.864,0,0,0,20.3,30.621v2.816a5.846,5.846,0,0,0,2.346,4.683A5.853,5.853,0,0,0,20.3,42.8v2.816a5.8,5.8,0,0,0,.178,1.42,38.67,38.67,0,0,0-5.717-.414C7.424,46.628,0,48.6,0,52.379v20.5c0,3.377,5.744,5.1,11.119,5.588q.054,0,.108,0a1.172,1.172,0,0,0,.1-2.34C5.058,75.567,2.345,73.7,2.345,72.88V69.3c2.77,1.645,7.611,2.491,12.413,2.491S24.4,70.945,27.172,69.3v3.577c0,.684-1.774,2-5.716,2.789a1.172,1.172,0,1,0,.46,2.3c4.9-.981,7.6-2.787,7.6-5.092V63.665h10.49a19.188,19.188,0,0,0,2.3,7.409,17.078,17.078,0,0,0,6.025,6.817,2.625,2.625,0,0,0,3.284,0,17.078,17.078,0,0,0,6.025-6.815,18.445,18.445,0,0,0,2.348-8.8A2.647,2.647,0,0,0,58.326,59.516ZM22.642,33.436V30.621a3.517,3.517,0,0,1,3.514-3.514H52.73a3.515,3.515,0,0,1,3.51,3.514v2.816a3.515,3.515,0,0,1-3.51,3.511H26.156a3.515,3.515,0,0,1-3.514-3.51Zm4.526,32.608c0,.364-.66,1.278-3.181,2.125a30.113,30.113,0,0,1-9.233,1.279,30.113,30.113,0,0,1-9.232-1.279c-2.517-.849-3.182-1.761-3.182-2.125V62.47c2.77,1.646,7.611,2.492,12.413,2.492s9.644-.849,12.413-2.492Zm0-6.835c0,.365-.66,1.28-3.181,2.128a30.1,30.1,0,0,1-9.23,1.276,30.1,30.1,0,0,1-9.232-1.28c-2.517-.849-3.182-1.762-3.182-2.128v-3.57c2.77,1.645,7.611,2.491,12.413,2.491s9.644-.849,12.413-2.491ZM23.991,54.5a30.114,30.114,0,0,1-9.233,1.279A30.112,30.112,0,0,1,5.526,54.5c-2.517-.849-3.182-1.761-3.182-2.125s.665-1.28,3.182-2.128a30.1,30.1,0,0,1,9.232-1.28,33.228,33.228,0,0,1,7.566.806h.008c.587.141,1.143.3,1.661.471A9.7,9.7,0,0,1,26.2,51.262l.052.035c.692.467.921.868.921,1.082,0,.365-.665,1.278-3.181,2.125ZM27.2,49.135A15.088,15.088,0,0,0,23.262,47.6a3.5,3.5,0,0,1-.619-1.98V42.8a3.517,3.517,0,0,1,3.514-3.514H52.73A3.515,3.515,0,0,1,56.24,42.8v2.817a3.515,3.515,0,0,1-3.51,3.514ZM40.046,61.319H29.515v-8.94a2.79,2.79,0,0,0-.149-.9H52.73a3.514,3.514,0,0,1,3.51,3.511V57.8a3.517,3.517,0,0,1-.046.559l-5.665-3.055a1.166,1.166,0,0,0-.566-.144H39.17a1.172,1.172,0,0,0,0,2.344h6.156l-3.513,1.9C40.88,59.907,40.265,60.291,40.046,61.319Zm15.523,8.645a14.8,14.8,0,0,1-5.159,5.91,3.416,3.416,0,0,1-.442.237,3.432,3.432,0,0,1-.438-.236h0a14.8,14.8,0,0,1-5.161-5.912A16.148,16.148,0,0,1,42.294,62.3a2.362,2.362,0,0,1,.038-.483,5.691,5.691,0,0,1,.588-.34l7.045-3.8,7.023,3.789.025.013a5.776,5.776,0,0,1,.587.339,2.374,2.374,0,0,1,.036.483,16.106,16.106,0,0,1-2.069,7.67Z" transform="translate(0 -24.762)" fill="url(#linear-gradient)"/>
      <path id="Path_509" data-name="Path 509" d="M265.591,269.485h-.007a1.176,1.176,0,1,0,.007,0Z" transform="translate(-231.565 -239.081)" fill="url(#linear-gradient)"/>
      <path id="Path_510" data-name="Path 510" d="M378.3,333.78l-3.147,3.229-1.067-1a1.173,1.173,0,1,0-1.6,1.712l1.906,1.783a1.172,1.172,0,0,0,1.641-.038l3.948-4.055a1.172,1.172,0,0,0-1.679-1.636Z" transform="translate(-325.882 -295.079)" fill="url(#linear-gradient)"/>
    </g>
  </g>
</svg>
