<svg xmlns="http://www.w3.org/2000/svg" xmlns:xlink="http://www.w3.org/1999/xlink" id="Capa_1" x="0px" y="0px" viewBox="0 0 512 512" style="enable-background:new 0 0 512 512;" xml:space="preserve">
<style type="text/css">
	.st0{fill:#42C4E3;}
</style>
<path class="st0" d="M406.7,76h-60.2C333.7,32.1,293.1,0,245.2,0c-11,0-20,9-20,20v56H86.7c-11,0-20,9-20,20v396c0,11,9,20,20,20  h320c11,0,20-9,20-20V96C426.7,85,417.7,76,406.7,76z M245.2,472H106.7V116h118.5v205c0,11,9,20,20,20c36.1,0,65.5,29.4,65.5,65.5  S281.3,472,245.2,472z M310.7,323.9c-13-10.3-28.5-17.7-45.5-20.9V43.1c26.4,8.5,45.5,33.2,45.5,62.4V323.9z M386.7,472h-58.9  c14.3-18,22.9-40.8,22.9-65.5V116h36V472z"></path>
</svg>