<svg xmlns="http://www.w3.org/2000/svg" xmlns:xlink="http://www.w3.org/1999/xlink" width="60" height="60" viewBox="0 0 60 60">
  <defs>
    <clipPath id="clip-path">
      <rect id="Rectangle_1" data-name="Rectangle 1" width="60" height="60" transform="translate(867 744)" fill="#fff"/>
    </clipPath>
    <linearGradient id="linear-gradient" x1="0.5" x2="0.5" y2="1" gradientUnits="objectBoundingBox">
      <stop offset="0" stop-color="#6362d7"/>
      <stop offset="1" stop-color="#a67bff"/>
    </linearGradient>
  </defs>
  <g id="Mask_Group_2" data-name="Mask Group 2" transform="translate(-867 -744)" clip-path="url(#clip-path)">
    <g id="migrating" transform="translate(866.155 743.161)">
      <path id="Path_527" data-name="Path 527" d="M17.871,12.263a2.9,2.9,0,1,0,2.9-2.9,2.9,2.9,0,0,0-2.9,2.9Zm2.9-.968a.968.968,0,1,1-.968.968.968.968,0,0,1,.968-.968Z" transform="translate(2.332 1.166)" fill="url(#linear-gradient)"/>
      <path id="Path_528" data-name="Path 528" d="M34.89,9.361h1.935v5.805H34.89Z" transform="translate(4.663 1.166)" fill="url(#linear-gradient)"/>
      <path id="Path_529" data-name="Path 529" d="M31.486,9.361h1.935v5.805H31.486Z" transform="translate(4.197 1.166)" fill="url(#linear-gradient)"/>
      <path id="Path_530" data-name="Path 530" d="M34.389,19.573a2.9,2.9,0,1,0,2.9,2.9A2.9,2.9,0,0,0,34.389,19.573Zm0,3.87a.968.968,0,1,1,.968-.968.968.968,0,0,1-.968.968Z" transform="translate(4.197 2.565)" fill="url(#linear-gradient)"/>
      <path id="Path_531" data-name="Path 531" d="M17.871,19.573h1.935v5.805H17.871Z" transform="translate(2.332 2.565)" fill="url(#linear-gradient)"/>
      <path id="Path_532" data-name="Path 532" d="M21.275,19.573H23.21v5.805H21.275Z" transform="translate(2.798 2.565)" fill="url(#linear-gradient)"/>
      <path id="Path_533" data-name="Path 533" d="M4.721,38.052V27.231H2.786V38.052a2.9,2.9,0,1,0,1.935,0Zm-.968,3.692a.968.968,0,1,1,.968-.968A.968.968,0,0,1,3.754,41.745Z" transform="translate(0 3.614)" fill="url(#linear-gradient)"/>
      <path id="Path_534" data-name="Path 534" d="M9.594,28.082V33.1a2.9,2.9,0,1,0,1.935,0V28.082Zm.968,8.708a.968.968,0,1,1,.968-.964.968.968,0,0,1-.968.964Z" transform="translate(0.933 3.731)" fill="url(#linear-gradient)"/>
      <path id="Path_535" data-name="Path 535" d="M58.9,37.443a2.9,2.9,0,1,0-1.935,0V44.9a8.657,8.657,0,0,0-4.838-1.473H51.98a13.348,13.348,0,0,0-.815-3.02V31.635a2.9,2.9,0,1,0-1.935,0v5.39a13.693,13.693,0,0,0-3.872-3.372V24.073h8.71a2.906,2.906,0,0,0,2.9-2.9V6.479a2.9,2.9,0,1,0-1.935,0V21.17a.969.969,0,0,1-.968.968h-8.71v-3.87h2.9a2.906,2.906,0,0,0,2.9-2.9V14.219a2.9,2.9,0,1,0-1.935,0v1.145a.969.969,0,0,1-.968.968h-2.9V11.494a4.843,4.843,0,0,0-4.838-4.838H34.194A13.517,13.517,0,0,0,9.711,12.463H9.558a8.708,8.708,0,0,0,0,17.416h6.773V42.337a8.741,8.741,0,0,0-.478,1.111c-.163-.009-.324-.026-.489-.026a8.708,8.708,0,1,0,0,17.416H52.132A8.7,8.7,0,0,0,58.9,46.67Zm-8.708-9.5a.968.968,0,1,1-.968.968.968.968,0,0,1,.968-.968ZM56,2.786a.968.968,0,1,1-.968.968A.968.968,0,0,1,56,2.786ZM50.2,10.53a.968.968,0,1,1-.968.968.968.968,0,0,1,.968-.968Zm7.744,23.222a.968.968,0,1,1-.971.968.968.968,0,0,1,.971-.968ZM38.589,31.816a13.545,13.545,0,0,0-11.483,6.361,8.656,8.656,0,0,0-1.328-.386,2.9,2.9,0,1,0-5.062.5,8.669,8.669,0,0,0-2.448,1.539v-8.02H43.424v.9a13.4,13.4,0,0,0-4.838-.9ZM22.137,36.651a.968.968,0,1,1,.968.968.968.968,0,0,1-.968-.968ZM18.267,20.2H43.424v9.676H18.267Zm25.157-8.708v6.773H18.267V11.494a2.906,2.906,0,0,1,2.9-2.9H40.521A2.906,2.906,0,0,1,43.424,11.494ZM9.555,27.943a6.773,6.773,0,1,1,0-13.546,6.657,6.657,0,0,1,.892.07l1.021.133.072-1.021a11.586,11.586,0,0,1,20.2-6.922H21.17a4.843,4.843,0,0,0-4.838,4.838V27.943ZM52.132,58.9H15.364a6.773,6.773,0,1,1,6.773-6.773h1.935a8.719,8.719,0,0,0-6.266-8.353,6.767,6.767,0,0,1,13.039,2.548h1.935a8.7,8.7,0,0,0-3.92-7.267,11.582,11.582,0,0,1,21.293,5.472l.072,1.021,1.021-.133a6.656,6.656,0,0,1,.888-.066,6.773,6.773,0,0,1,0,13.546Z" fill="url(#linear-gradient)"/>
      <path id="Path_536" data-name="Path 536" d="M34.039,31.486v1.935a7.75,7.75,0,0,1,7.744,7.744h1.932A9.687,9.687,0,0,0,34.039,31.486Z" transform="translate(4.547 4.197)" fill="url(#linear-gradient)"/>
      <path id="Path_537" data-name="Path 537" d="M11.3,46.536a2.906,2.906,0,0,1,2.9-2.9V41.7a4.838,4.838,0,1,0,0,9.676H27.742V49.442H14.2a2.906,2.906,0,0,1-2.9-2.906Z" transform="translate(1.166 5.596)" fill="url(#linear-gradient)"/>
      <path id="Path_538" data-name="Path 538" d="M27.231,48.506h1.935v1.935H27.231Z" transform="translate(3.614 6.529)" fill="url(#linear-gradient)"/>
      <path id="Path_539" data-name="Path 539" d="M30.635,48.506H32.57v1.935H30.635Z" transform="translate(4.08 6.529)" fill="url(#linear-gradient)"/>
      <path id="Path_540" data-name="Path 540" d="M46.8,42.549v1.935a1.937,1.937,0,0,1,1.935,1.935h1.935A3.875,3.875,0,0,0,46.8,42.549Z" transform="translate(6.296 5.713)" fill="url(#linear-gradient)"/>
      <path id="Path_541" data-name="Path 541" d="M6.19,18.722H4.255a4.843,4.843,0,0,0,4.838,4.838h.968V21.624H9.093a2.906,2.906,0,0,1-2.9-2.9Z" transform="translate(0.466 2.448)" fill="url(#linear-gradient)"/>
      <path id="Path_542" data-name="Path 542" d="M11.063,21.275H13V23.21H11.063Z" transform="translate(1.399 2.798)" fill="url(#linear-gradient)"/>
    </g>
  </g>
</svg>
