<svg xmlns="http://www.w3.org/2000/svg" xmlns:xlink="http://www.w3.org/1999/xlink" id="Capa_1" x="0px" y="0px" viewBox="0 0 512 512" style="enable-background:new 0 0 512 512;" xml:space="preserve">
<style type="text/css">
	.st0{fill:#42C4E3;}
</style>
<g>
	<g>
		<g>
			<path class="st0" d="M467,240.4h-35v-29c0-97-79-176-176-176s-176,79-176,176v29H45c-24.8,0-45,20.2-45,45v101     c0,24.8,20.2,45,45,45h65v-220c0-80.5,65.5-146,146-146s146,65.5,146,146v220h65c24.8,0,45-20.2,45-45v-101     C512,260.6,491.8,240.4,467,240.4z"></path>
		</g>
	</g>
</g>
<g>
	<g>
		<g>
			<path class="st0" d="M256,306.3L140,289v170.3l116,17.2l116-17.2V289L256,306.3z M241,444l-71-10.5V323.8l71,10.5V444z      M342,433.5L271,444V334.4l71-10.5V433.5z"></path>
		</g>
	</g>
</g>
</svg>