<svg xmlns="http://www.w3.org/2000/svg" xmlns:xlink="http://www.w3.org/1999/xlink" width="60" height="60" viewBox="0 0 60 60">
  <defs>
    <clipPath id="clip-path">
      <rect id="Rectangle_1" data-name="Rectangle 1" width="60" height="60" transform="translate(867 744)" fill="#fff"/>
    </clipPath>
    <linearGradient id="linear-gradient" x1="0.5" x2="0.5" y2="1" gradientUnits="objectBoundingBox">
      <stop offset="0" stop-color="#6362d7"/>
      <stop offset="1" stop-color="#a67bff"/>
    </linearGradient>
  </defs>
  <g id="Mask_Group_5" data-name="Mask Group 5" transform="translate(-867 -744)" clip-path="url(#clip-path)">
    <g id="big-data" transform="translate(868.206 744.001)">
      <path id="Path_521" data-name="Path 521" d="M107.9,21.439a3.985,3.985,0,0,0,1.41-7.713,13.8,13.8,0,0,1,3.846-7.3A14.009,14.009,0,0,1,130.566,4.56a1.172,1.172,0,1,0,1.272-1.97A16.293,16.293,0,0,0,111.5,4.77a16.128,16.128,0,0,0-4.543,8.811,3.986,3.986,0,0,0,.946,7.857Zm0-5.626a1.641,1.641,0,1,1-1.641,1.641,1.641,1.641,0,0,1,1.641-1.641Zm0,0" transform="translate(-89.758)" fill="url(#linear-gradient)"/>
      <path id="Path_522" data-name="Path 522" d="M175,98.405a1.173,1.173,0,1,0-1.319,1.938,16.287,16.287,0,0,0,25.207-10.77,3.987,3.987,0,1,0-2.354-.145,13.945,13.945,0,0,1-21.538,8.977ZM197.945,84.06A1.641,1.641,0,1,1,196.3,85.7a1.641,1.641,0,0,1,1.641-1.641Zm0,0" transform="translate(-149.571 -70.58)" fill="url(#linear-gradient)"/>
      <path id="Path_523" data-name="Path 523" d="M190.747,69.024a1.172,1.172,0,0,0,1.173,0l7.151-4.129a1.173,1.173,0,0,0,.586-1.015V55.62a1.172,1.172,0,0,0-.586-1.015l-7.151-4.129a1.171,1.171,0,0,0-1.173,0L183.6,54.605a1.172,1.172,0,0,0-.586,1.015v8.259a1.173,1.173,0,0,0,.586,1.015Zm-5.392-11.371,4.807,2.775v5.55L185.354,63.2Zm7.151,8.325v-5.55l4.807-2.775V63.2Zm-1.173-13.13,4.807,2.775L191.332,58.4l-4.807-2.775Zm0,0" transform="translate(-158.072 -43.465)" fill="url(#linear-gradient)"/>
      <path id="Path_524" data-name="Path 524" d="M57.56,240.921a4.292,4.292,0,0,0-7.21-2.9l-8.912,8.3a4.064,4.064,0,0,0-2.983-3.883l-10.548-2.925a14.811,14.811,0,0,0-10.981,1.211l-7.6,4.058-1.042-1.042a1.838,1.838,0,0,0-2.6,0L.344,249.078A1.173,1.173,0,0,0,2,250.736l4.983-4.983,12.669,12.669-4.188,4.188a1.173,1.173,0,0,0,1.658,1.658l4.547-4.548a1.832,1.832,0,0,0,.53-1.439H35.266a14.99,14.99,0,0,0,10.246-4.031L56.2,244.3A4.28,4.28,0,0,0,57.56,240.921ZM54.6,242.585l-10.688,9.949a12.653,12.653,0,0,1-8.649,3.407H20.488l-9.429-9.429,6.968-3.722a12.474,12.474,0,0,1,9.25-1.021l10.548,2.925a1.73,1.73,0,0,1-.463,3.4H23.954a1.173,1.173,0,0,0,0,2.344l8.219.008h5.145a7.931,7.931,0,0,0,5.42-2.134l9.205-8.575a1.947,1.947,0,0,1,2.653,2.85Zm0,0" transform="translate(0 -204.593)" fill="url(#linear-gradient)"/>
      <path id="Path_525" data-name="Path 525" d="M325.1,46.294a1.173,1.173,0,1,0-.828-.344,1.173,1.173,0,0,0,.828.344Zm0,0" transform="translate(-279.79 -37.961)" fill="url(#linear-gradient)"/>
      <path id="Path_526" data-name="Path 526" d="M146.6,175.707a1.173,1.173,0,1,0,.828.344,1.173,1.173,0,0,0-.828-.344Zm0,0" transform="translate(-125.616 -151.766)" fill="url(#linear-gradient)"/>
    </g>
  </g>
</svg>
