<svg xmlns="http://www.w3.org/2000/svg" xmlns:xlink="http://www.w3.org/1999/xlink" width="60" height="60" viewBox="0 0 60 60">
  <defs>
    <clipPath id="clip-path">
      <rect id="Rectangle_1" data-name="Rectangle 1" width="60" height="60" transform="translate(867 744)" fill="#fff"/>
    </clipPath>
    <linearGradient id="linear-gradient" x1="0.5" x2="0.5" y2="1" gradientUnits="objectBoundingBox">
      <stop offset="0" stop-color="#6362d7"/>
      <stop offset="1" stop-color="#a67bff"/>
    </linearGradient>
  </defs>
  <g id="Mask_Group_1" data-name="Mask Group 1" transform="translate(-867 -744)" clip-path="url(#clip-path)">
    <g id="Text" transform="translate(858.76 736.945)">
      <g id="data" transform="translate(8.24 7.055)">
        <path id="Path_479" data-name="Path 479" d="M5.608,13.333a14.865,14.865,0,0,1,.25-4.312A8.68,8.68,0,0,1,8.142,4.666,9.588,9.588,0,0,1,14.717,2.1a19.161,19.161,0,0,1,4.029.275L19.1.36a21.19,21.19,0,0,0-4.47-.3A11.561,11.561,0,0,0,6.692,3.221,10.687,10.687,0,0,0,3.86,8.59V8.6a16.88,16.88,0,0,0-.286,4.913Zm0,0" transform="translate(-3.142 -0.037)" fill="url(#linear-gradient)"/>
        <path id="Path_480" data-name="Path 480" d="M36.748,230.723c-.615-1.124-1.181-2.252-1.678-3.357l-1.864.841c.519,1.152,1.109,2.329,1.75,3.5Zm0,0" transform="translate(-29.798 -204.067)" fill="url(#linear-gradient)"/>
        <path id="Path_481" data-name="Path 481" d="M9.949,164.273a33.415,33.415,0,0,0,.933,3.24l1.935-.661a31.317,31.317,0,0,1-.876-3.041Zm0,0" transform="translate(-8.924 -147.027)" fill="url(#linear-gradient)"/>
        <path id="Path_482" data-name="Path 482" d="M129.827,367.314l-.267-.3-1.543,1.34.273.313c.519.591,1.059,1.187,1.605,1.771q.368.393.743.782l1.473-1.417q-.366-.38-.723-.761C130.858,368.468,130.333,367.889,129.827,367.314Zm0,0" transform="translate(-114.896 -329.403)" fill="url(#linear-gradient)"/>
        <path id="Path_483" data-name="Path 483" d="M83.765,313.124l1.613-1.255q-.223-.287-.44-.574c-.622-.819-1.225-1.65-1.79-2.47l-1.683,1.161c.583.846,1.2,1.7,1.846,2.546q.225.3.454.592Zm0,0" transform="translate(-73.112 -277.183)" fill="url(#linear-gradient)"/>
        <path id="Path_484" data-name="Path 484" d="M170.568,412.336a74.44,74.44,0,0,0,6.088,5.327,62.371,62.371,0,0,0,9.189,6,45.514,45.514,0,0,0,5.857,2.606l-1.867.534.562,1.966,5.227-1.5a1.023,1.023,0,0,0,.7-1.264l-1.362-4.76-1.966.562.866,3.024a41.387,41.387,0,0,1-7.06-2.977,60.3,60.3,0,0,1-8.889-5.805,72.469,72.469,0,0,1-5.923-5.181Zm0,0" transform="translate(-153.085 -368.773)" fill="url(#linear-gradient)"/>
        <path id="Path_485" data-name="Path 485" d="M447.463,355.386a34.563,34.563,0,0,0-2.564-8.337l-1.872.822a32.548,32.548,0,0,1,2.416,7.838c.731,4.572-.072,8.177-2.323,10.428a8.655,8.655,0,0,1-4.31,2.272,15.171,15.171,0,0,1-4.755.226c-.43-.041-.874-.1-1.319-.169l-.319,2.019c.485.077.971.139,1.443.185q1,.1,1.943.1a15.776,15.776,0,0,0,3.457-.363,10.666,10.666,0,0,0,5.306-2.822C447.3,364.847,448.3,360.63,447.463,355.386Zm0,0" transform="translate(-388.104 -311.488)" fill="url(#linear-gradient)"/>
        <path id="Path_486" data-name="Path 486" d="M515.339,300.854l-1.776,1.012c.492.864.956,1.734,1.379,2.585l1.831-.909C516.333,302.656,515.851,301.751,515.339,300.854Zm0,0" transform="translate(-460.935 -270.027)" fill="url(#linear-gradient)"/>
        <path id="Path_487" data-name="Path 487" d="M470.367,231.511l-1.624,1.242c.762,1,1.505,2.027,2.211,3.061l1.689-1.151C471.916,233.6,471.15,232.537,470.367,231.511Zm0,0" transform="translate(-420.706 -207.789)" fill="url(#linear-gradient)"/>
        <path id="Path_488" data-name="Path 488" d="M422.328,173.857l-1.478,1.411c.865.906,1.717,1.85,2.532,2.8l1.553-1.328C424.1,175.761,423.219,174.79,422.328,173.857Zm0,0" transform="translate(-377.723 -156.043)" fill="url(#linear-gradient)"/>
        <path id="Path_489" data-name="Path 489" d="M178.813,7.191l2-.427-.66-3.087a41.007,41.007,0,0,1,5.46,2.4,59.764,59.764,0,0,1,8.778,5.667c1.3,1,2.608,2.09,3.888,3.232.71.634,1.426,1.3,2.126,1.976.3.293.613.6.922.906l1.445-1.445c-.317-.317-.635-.629-.948-.931-.719-.7-1.454-1.377-2.184-2.031-1.317-1.175-2.664-2.3-4-3.323Q193.7,8.61,191.62,7.251c.784-.442,1.571-.861,2.343-1.245l-.91-1.831c-.917.454-1.854.956-2.783,1.489L190.92,6.8q-2.126-1.354-4.351-2.533a43.281,43.281,0,0,0-4.063-1.883L184.3,2l-.424-2-5.316,1.137a1.022,1.022,0,0,0-.786,1.213Zm0,0" transform="translate(-159.537)" fill="url(#linear-gradient)"/>
        <path id="Path_490" data-name="Path 490" d="M.311,429.968a21.161,21.161,0,0,0-.3,4.469,11.559,11.559,0,0,0,3.162,7.932A10.687,10.687,0,0,0,8.539,445.2h.013a16.853,16.853,0,0,0,3.427.352q.743,0,1.485-.065l-.18-2.037a14.811,14.811,0,0,1-4.312-.25,8.664,8.664,0,0,1-4.355-2.282,9.588,9.588,0,0,1-2.568-6.576,19.118,19.118,0,0,1,.275-4.03Zm0,0" transform="translate(0.012 -385.911)" fill="url(#linear-gradient)"/>
        <path id="Path_491" data-name="Path 491" d="M228.154,521.439c1.153-.519,2.329-1.109,3.5-1.749l-.982-1.792c-1.123.615-2.252,1.181-3.357,1.678Zm0,0" transform="translate(-204.016 -464.831)" fill="url(#linear-gradient)"/>
        <path id="Path_492" data-name="Path 492" d="M164.222,550.6a33.3,33.3,0,0,0,3.241-.933l-.663-1.936a31.372,31.372,0,0,1-3.041.877Zm0,0" transform="translate(-146.976 -491.605)" fill="url(#linear-gradient)"/>
        <path id="Path_493" data-name="Path 493" d="M366.96,420.241l1.339,1.544.314-.274c.591-.519,1.188-1.061,1.771-1.605q.392-.368.783-.743l-1.417-1.473q-.38.367-.762.723c-.568.531-1.148,1.057-1.723,1.562Q367.114,420.109,366.96,420.241Zm0,0" transform="translate(-329.355 -374.891)" fill="url(#linear-gradient)"/>
        <path id="Path_494" data-name="Path 494" d="M308.782,468.226l1.16,1.683c.846-.583,1.7-1.2,2.547-1.846q.3-.225.591-.454l-1.255-1.614q-.286.223-.573.441C310.433,467.06,309.6,467.662,308.782,468.226Zm0,0" transform="translate(-277.136 -418.247)" fill="url(#linear-gradient)"/>
        <path id="Path_495" data-name="Path 495" d="M355.66,5.9c4.57-.731,8.176.072,10.428,2.324a8.659,8.659,0,0,1,2.272,4.31,15.16,15.16,0,0,1,.226,4.755c-.041.429-.1.873-.168,1.318l2.019.32c.077-.487.139-.973.185-1.443a17.207,17.207,0,0,0-.267-5.4,10.666,10.666,0,0,0-2.822-5.307c-2.735-2.734-6.953-3.736-12.2-2.9A34.583,34.583,0,0,0,347,6.445l.822,1.872A32.534,32.534,0,0,1,355.66,5.9Zm0,0" transform="translate(-311.439 -3.227)" fill="url(#linear-gradient)"/>
        <path id="Path_496" data-name="Path 496" d="M178.016,126.5l-1.328-1.55c-.981.839-1.951,1.716-2.885,2.606l1.411,1.479c.907-.866,1.85-1.718,2.8-2.532Zm0,0" transform="translate(-155.989 -112.144)" fill="url(#linear-gradient)"/>
        <path id="Path_497" data-name="Path 497" d="M235.767,80.548l-1.149-1.69c-1.066.727-2.126,1.493-3.151,2.276l1.242,1.624C233.7,82,234.731,81.254,235.767,80.548Zm0,0" transform="translate(-207.742 -70.778)" fill="url(#linear-gradient)"/>
        <path id="Path_498" data-name="Path 498" d="M427.223,164.091a1.022,1.022,0,0,0-1.263-.7l-4.765,1.36.562,1.966,3.024-.866a41.435,41.435,0,0,1-2.978,7.06A60.309,60.309,0,0,1,416,181.8a72.46,72.46,0,0,1-5.182,5.922l1.463,1.427a74.493,74.493,0,0,0,5.327-6.088,62.37,62.37,0,0,0,6-9.189,45.563,45.563,0,0,0,2.606-5.857l.534,1.867,1.966-.562Zm0,0" transform="translate(-368.719 -146.612)" fill="url(#linear-gradient)"/>
        <path id="Path_499" data-name="Path 499" d="M2.084,188.773a1,1,0,0,0,.215-.023l4.842-1.035-.427-2-3.087.66a40.933,40.933,0,0,1,2.4-5.46,59.711,59.711,0,0,1,5.667-8.778c1-1.3,2.089-2.607,3.232-3.888.634-.711,1.3-1.426,1.976-2.126.3-.307.6-.617.906-.922l-1.445-1.445c-.314.314-.627.631-.931.947-.7.719-1.378,1.454-2.031,2.185-1.176,1.317-2.3,2.664-3.323,4a61.782,61.782,0,0,0-5.858,9.075,42.85,42.85,0,0,0-1.883,4.063l-.385-1.8-2,.426,1.137,5.316a1.023,1.023,0,0,0,1,.809Zm0,0" transform="translate(0.051 -146.974)" fill="url(#linear-gradient)"/>
        <path id="Path_500" data-name="Path 500" d="M206.693,179.856v16.215c0,.865.485,2.083,2.946,2.973a17.89,17.89,0,0,0,5.893.9h.079a21.029,21.029,0,0,0,3.807-.348c3.19-.612,5.037-1.9,5.037-3.52V179.856c0-.866-.541-2.083-3-2.974a18.078,18.078,0,0,0-5.92-.9,17.841,17.841,0,0,0-5.884.9c-2.461.891-2.952,2.108-2.952,2.974Zm12.344,17.725a18.718,18.718,0,0,1-3.506.313,15.789,15.789,0,0,1-5.189-.772c-1.346-.487-1.6-.976-1.6-1.052v-2.853a6.758,6.758,0,0,0,.9.4,17.888,17.888,0,0,0,5.893.9,18.087,18.087,0,0,0,5.925-.9c.35-.126.566-.26.95-.4v2.854C222.407,196.265,221.58,197.094,219.037,197.581Zm3.372-6.941c0,.077-.308.565-1.653,1.052a16,16,0,0,1-5.226.772,15.768,15.768,0,0,1-5.188-.772c-1.346-.487-1.6-.976-1.6-1.052v-2.816a6.709,6.709,0,0,0,.9.4,17.887,17.887,0,0,0,5.893.9,18.087,18.087,0,0,0,5.925-.9c.35-.126.566-.26.95-.4Zm-1.653-4.341a16.006,16.006,0,0,1-5.226.772,15.767,15.767,0,0,1-5.188-.772c-1.346-.487-1.6-.976-1.6-1.052v-2.816a6.837,6.837,0,0,0,.9.4,17.891,17.891,0,0,0,5.893.9,18.1,18.1,0,0,0,5.925-.9c.35-.127.566-.26.95-.4v2.816c0,.077-.3.565-1.651,1.052Zm-10.45-7.491a17.978,17.978,0,0,1,10.425,0c1.345.487,1.629.976,1.629,1.052s-.284.563-1.629,1.051a17.979,17.979,0,0,1-10.426,0c-1.346-.487-1.629-.976-1.629-1.051s.284-.564,1.63-1.052Zm0,0" transform="translate(-185.508 -157.955)" fill="url(#linear-gradient)"/>
      </g>
    </g>
  </g>
</svg>
