<svg xmlns="http://www.w3.org/2000/svg" xmlns:xlink="http://www.w3.org/1999/xlink" id="Layer_1" x="0px" y="0px" viewBox="0 0 50 50" style="enable-background:new 0 0 50 50;" xml:space="preserve">
<style type="text/css">
	.st0{fill:#0961F5;}
</style>
<path class="st0" d="M47.9,30.2h-4.5V2.4c0-1.2-0.9-2.1-2.1-2.1c-1.2,0-2.1,0.9-2.1,2.1v27.8H36V19.4c0-0.6-0.4-1.3-0.9-1.7  c-0.5-0.4-1.3-0.5-1.9-0.2l-8,3.4v-7.8c0-0.7-0.3-1.4-0.9-1.8c-0.6-0.4-1.4-0.4-2-0.1L8.3,18.3c-0.7,0.3-1.2,1-1.2,1.8v10.1H2.7  c-1.2,0-2.1,0.9-2.1,2.1v15.3c0,1.2,0.9,2.1,2.1,2.1H48c1.2,0,2-0.8,2-2V32.3C50,31.1,49.1,30.2,47.9,30.2z M31.9,22.3v7.8h-6.6  v-4.9L31.9,22.3z M21.1,16.4v13.7h-9.9v-8.7L21.1,16.4z M45.9,45.6H14.7v-4.5c0-1.2-0.9-2.1-2.1-2.1c-1.2,0-2.1,0.9-2.1,2.1v4.5H4.8  V34.3h4.3c0,0,0,0,0.1,0c0,0,0,0,0.1,0H34h11.9V45.6z"></path>
</svg>